<svg xmlns="http://www.w3.org/2000/svg" xmlns:xlink="http://www.w3.org/1999/xlink" viewBox="0 0 103.3 109.5"><defs><style>.cls-1{stroke:#000;stroke-width:0.25px;fill:url(#Gradiente_sem_nome_32);}.cls-1,.cls-2,.cls-3,.cls-5{stroke-miterlimit:10;}.cls-2,.cls-3,.cls-5{fill:none;}.cls-2,.cls-3{stroke:#fff;}.cls-3{stroke-width:0.5px;}.cls-4{fill:url(#Gradiente_sem_nome_32-2);}.cls-5{stroke:#211915;}</style><linearGradient id="Gradiente_sem_nome_32" x1="32.96" y1="19.4" x2="55.83" y2="118.46" gradientUnits="userSpaceOnUse"><stop offset="0" stop-color="#3b007f"/><stop offset="0.28" stop-color="#3b0081" stop-opacity="0.98"/><stop offset="0.45" stop-color="#3a0088" stop-opacity="0.91"/><stop offset="0.59" stop-color="#390094" stop-opacity="0.8"/><stop offset="0.72" stop-color="#3800a5" stop-opacity="0.64"/><stop offset="0.83" stop-color="#3600bb" stop-opacity="0.43"/><stop offset="0.94" stop-color="#3400d5" stop-opacity="0.18"/><stop offset="1" stop-color="#3200e9" stop-opacity="0"/></linearGradient><linearGradient id="Gradiente_sem_nome_32-2" x1="40.3" y1="2.56" x2="53.87" y2="61.34" xlink:href="#Gradiente_sem_nome_32"/></defs><title>Ativo 3</title><g id="Camada_2" data-name="Camada 2"><g id="Camada_2-2" data-name="Camada 2"><path class="cls-1" d="M1.28,95.94,43.66,20a9,9,0,0,1,15.76,0l42.59,76a9,9,0,0,1-7.88,13.44h-85A9,9,0,0,1,1.28,95.94Z"/><circle class="cls-2" cx="55.09" cy="64.37" r="19.5"/><path class="cls-2" d="M42.28,78.9,29.13,97.52a1.86,1.86,0,0,0,.46,2.6l3.92,2.71a1.86,1.86,0,0,0,2.66-.6l11.61-20"/><circle class="cls-3" cx="54.59" cy="63.87" r="17"/><line class="cls-3" x1="30.93" y1="94.97" x2="37.67" y2="99.64"/><line class="cls-3" x1="33.03" y1="91.99" x2="39.57" y2="96.37"/><path class="cls-4" d="M79.25,55.37h0a4.13,4.13,0,0,0,3.57-6.21L55.44,2.06a4.13,4.13,0,0,0-7.12,0l-28,47.11a4.13,4.13,0,0,0,3.55,6.25h.7a4.13,4.13,0,0,0,3.56-2L48.35,19.13a4.13,4.13,0,0,1,7.11,0L75.69,53.34A4.13,4.13,0,0,0,79.25,55.37Z"/><path class="cls-5" d="M9.1,84.12"/><path class="cls-5" d="M51.54,105.08"/></g></g></svg>