<svg xmlns="http://www.w3.org/2000/svg" xmlns:xlink="http://www.w3.org/1999/xlink" viewBox="0 0 36.63 36.63"><defs><radialGradient id="a" cx="39.88" cy="42.88" r="50.41" gradientTransform="matrix(-1, 0, 0, 1, 36.63, 0)" gradientUnits="userSpaceOnUse"><stop offset="0.23" stop-color="#fff"/><stop offset="0.33" stop-color="#b8b8b8"/><stop offset="0.44" stop-color="#777"/><stop offset="0.53" stop-color="#444"/><stop offset="0.61" stop-color="#1f1f1f"/><stop offset="0.68" stop-color="#080808"/><stop offset="0.72"/></radialGradient><radialGradient id="b" cx="39.88" cy="42.87" r="50.41" gradientTransform="matrix(0, -1, -1, 0, 36.62, 36.63)" xlink:href="#a"/><radialGradient id="c" cx="18.44" cy="18.31" r="22.31" gradientTransform="matrix(-1, 0, 0, 1, 36.63, 0)" gradientUnits="userSpaceOnUse"><stop offset="0" stop-color="#fff"/><stop offset="0.28" stop-color="#fdfdfd"/><stop offset="0.42" stop-color="#f5f5f5"/><stop offset="0.52" stop-color="#e8e8e8"/><stop offset="0.61" stop-color="#d5d5d5"/><stop offset="0.69" stop-color="#bdbdbd"/><stop offset="0.77" stop-color="#9f9f9f"/><stop offset="0.84" stop-color="#7b7b7b"/><stop offset="0.9" stop-color="#525252"/><stop offset="0.96" stop-color="#252525"/><stop offset="1"/></radialGradient><clipPath id="d"><rect x="5.81" y="5.81" width="25" height="25" style="fill:none"/></clipPath><mask id="e" x="0" y="4.79" width="36.63" height="27.04" maskUnits="userSpaceOnUse"><rect x="5.81" y="5.81" width="25" height="25" style="fill:url(#a)"/></mask><mask id="g" x="4.79" y="0" width="27.04" height="36.63" maskUnits="userSpaceOnUse"><rect x="5.81" y="5.81" width="25" height="25" style="fill:url(#b)"/></mask></defs><title>Ativo 1</title><rect x="5.81" y="5.81" width="25" height="25" style="fill:url(#c)"/><g style="clip-path:url(#d)"><g style="mask:url(#e)"><g style="opacity:0.25"><path d="M34.31,6.94" style="fill:none;stroke:#444343;stroke-miterlimit:10"/><path d="M0,23l5,1.44-5,3Zm4.86,1.46L0,23.06v4.26Z" style="fill:#444343"/><path d="M2.26,16.72l0,0L0,18.12v-.52ZM0,18l2-1.18-2,.77Z" style="fill:#444343"/><path d="M2.28,16.7,5,24.48,0,23v-5Zm2.61,7.71L2.25,16.77,0,18.09V23Z" style="fill:#444343"/><path d="M24.06,23.25,27.65,29l-4.49-.06Zm3.51,5.66-3.48-5.54-.87,5.47Z" style="fill:#444343"/><path d="M21.26,22.9l2.84.39v0L23.19,29Zm2.79.43L21.32,23l1.86,5.81Z" style="fill:#444343"/><path d="M21.29,22.85l1.93,6h0l-4.09,2.5Zm1.87,6L21.29,23l-2.12,8.27Z" style="fill:#444343"/><path d="M15.21,16.38l0,0L21.34,23l-8.49.64Zm6,6.53-6-6.45-2.31,7.07Z" style="fill:#444343"/><path d="M10.36,4.79" style="fill:none;stroke:#444343;stroke-miterlimit:10"/><polygon points="20.99 5.67 24.4 11.16 24.37 11.19 20.95 5.69 20.99 5.67" style="fill:#444343"/><path d="M21,5.68" style="fill:none;stroke:#444343;stroke-miterlimit:10"/><path d="M21,5.62l3.51,5.66-4-3.12h0Zm3.34,5.46L21,5.74l-.43,2.39Z" style="fill:#444343"/><path d="M21,5.68" style="fill:none;stroke:#444343;stroke-miterlimit:10"/><path d="M15.26,16.37,12.9,23.59,7,20.78Zm-2.39,7.16,2.31-7.06L7.12,20.78Z" style="fill:#444343"/><path d="M15.22,16.4l0,0L7.05,20.82l-.32-1.76h0ZM7.09,20.75,15,16.52,6.78,19.09Z" style="fill:#444343"/><path d="M7.08,20.76l5.84,2.79-.79.86L7.06,20.8Zm5.77,2.81L7.3,20.92l4.83,3.44Z" style="fill:#444343"/><path d="M7.05,20.74l5.14,3.67-5.59.13v0Zm5,3.62-5-3.54-.44,3.66Z" style="fill:#444343"/><path d="M2.09,16.62l4.68,2.44h0l.33,1.77Zm4.64,2.47L2.44,16.85,7,20.72Z" style="fill:#444343"/><path d="M7.1,20.68l-.46,3.86-1.76-.07Zm-.5,3.81L7,20.89,5,24.43Z" style="fill:#444343"/><path d="M2.22,16.67,7.1,20.78v0L4.92,24.5l0,0ZM7,20.79l-4.72-4,2.61,7.58Z" style="fill:#444343"/><path d="M12.14,24.36l.52,4,0,0L6.55,24.49Zm.46,3.9-.5-3.85-5.4.12Z" style="fill:#444343"/><path d="M21.32,22.9l-2.17,8.48,0,0-6.28-7Zm-2.19,8.39L21.26,23,12.93,24.4Z" style="fill:#444343"/><path d="M21.29,22.91v0l-8.43,1.46v-.87Zm-8.38,1.45L20.82,23l-7.91.6Z" style="fill:#444343"/><path d="M12.87,24.33l0,0,6.33,7-6.62-3.09v0ZM19,31.27,12.9,24.44l-.25,3.85Z" style="fill:#444343"/><path d="M12.91,23.5v.9h-.83Zm0,.86v-.74l-.68.74Z" style="fill:#444343"/><path d="M12.1,24.36h.81l-.25,3.94h0Zm.76,0h-.71l.47,3.66Z" style="fill:#444343"/><path d="M36.63,6.8V9.07L34.25,6.92Zm0,2.17V6.84L34.36,7Z" style="fill:#444343"/><path d="M10.36,4.79" style="fill:none;stroke:#444343;stroke-miterlimit:10"/><path d="M24.61,20.54l-.52,2.79-2.86-.39Zm-.56,2.74.49-2.64-3.19,2.27Z" style="fill:#444343"/><path d="M15.13,16.36l9.49,4.23L21.29,23v0Zm9.4,4.24-9.21-4.11,6,6.41Z" style="fill:#444343"/><path d="M13.19,13.84l2.19,2.74-2.4-2Zm1.88,2.42-1.86-2.32-.17.64Z" style="fill:#444343"/><path d="M13,14.56l2.26,1.87h0l-8.6,2.7Zm2.17,1.85L13,14.62,6.88,19Z" style="fill:#444343"/><path d="M0,5.39,3.46,9.25,0,9Zm3.35,3.8L0,5.51V8.92Z" style="fill:#444343"/><path d="M3.41,9.2l9.81,4.69-.2.74L3.39,9.24Zm9.76,4.71L4,9.54l9,5Z" style="fill:#444343"/><path d="M3.36,9.17l9.69,5.42L6.74,19.11v0ZM13,14.59,3.44,9.27,6.77,19Z" style="fill:#444343"/><path d="M3.4,9.22" style="fill:none;stroke:#444343;stroke-miterlimit:10"/><path d="M3.4,9.12l0,.09,3.37,9.91L2.24,16.75v0ZM6.71,19,3.41,9.31,2.29,16.73Z" style="fill:#444343"/><polygon points="0.04 5.43 3.42 9.2 3.39 9.23 0.01 5.46 0.04 5.43" style="fill:#444343"/><path d="M35.7,19.21l.93,2.29v5h0l-4,.34v0Zm.88,2.29-.88-2.17-3,7.43,3.88-.33Z" style="fill:#444343"/><path d="M36.63,26.42V27l-2.77,1-1.24-1.31Zm0,.58v-.53l-3.87.33L33.87,28Z" style="fill:#444343"/><path d="M32.68,26.77,33.89,28v.65l-1.24-1.9Zm1.16,1.29-1-1.07,1,1.56Z" style="fill:#444343"/><path d="M32.67,26.76l1.23,1.88L27.48,29Zm1.15,1.84-1.17-1.78-4.92,2.09Z" style="fill:#444343"/><path d="M24,23.26l8.71,3.52L27.6,29Zm8.59,3.52-8.48-3.43,3.49,5.55Z" style="fill:#444343"/><path d="M24.56,20.55l8.25,6.32L24,23.32Zm8,6.15-7.93-6.07-.5,2.66Z" style="fill:#444343"/><path d="M15.76,5.27,21,5.66l-.45,2.52Zm5.18.43-5-.37,4.57,2.78Z" style="fill:#444343"/><polygon points="15.86 5.28 20.98 5.66 20.97 5.7 15.85 5.32 15.86 5.28" style="fill:#444343"/><path d="M34.32,6.9v0l1.33,8.88h0L26.1,12.57Zm1.28,8.85L34.29,7l-8.08,5.58Z" style="fill:#444343"/><polygon points="34.3 6.92 34.32 6.96 26.17 12.59 26.14 12.55 34.3 6.92" style="fill:#444343"/><path d="M26.15,12.47,27.57,17l-3,3.68ZM27.52,17l-1.36-4.33-1.54,7.85Z" style="fill:#444343"/><polygon points="24.4 11.16 26.17 12.55 26.14 12.58 24.37 11.19 24.4 11.16" style="fill:#444343"/><path d="M24.36,11.13l1.82,1.43h0l-1.62,8.23Zm1.77,1.45-1.72-1.35.18,9.16Z" style="fill:#444343"/><path d="M36.63,19v.56l-1-.32Zm0,.5v-.44l-.79.18Z" style="fill:#444343"/><path d="M35.66,19.23l1,.3v2.08Zm.92.34-.84-.27.84,2.08Z" style="fill:#444343"/><path d="M35.66,15.75l.06,3.54h0L31,17.88Zm0,3.48-.06-3.41-4.46,2Z" style="fill:#444343"/><path d="M31.06,17.84l4.67,1.41v0l-3.06,7.6Zm4.61,1.44-4.55-1.37,1.56,8.8Z" style="fill:#444343"/><path d="M26.08,12.52l.09,0,9.54,3.24L31.08,17.9Zm9.5,3.28-9.34-3.18,4.86,5.23Z" style="fill:#444343"/><path d="M31.1,17.84l1.6,9,0,0-8.12-6.22Zm1.53,8.89-1.57-8.82L24.62,20.6Z" style="fill:#444343"/><path d="M26.1,12.48l5,5.44L27.53,17ZM31,17.83l-4.81-5.18L27.56,17Z" style="fill:#444343"/><path d="M27.54,17l3.62.91L24.5,20.65Zm3.47.92L27.55,17l-2.9,3.52Z" style="fill:#444343"/><path d="M34.26,6.87,36.63,9v4.85ZM36.58,9,34.36,7l2.22,6.56Z" style="fill:#444343"/><path d="M36.63,16.46v2.62l-1,.22Zm0,2.58v-2.3l-.85,2.5Z" style="fill:#444343"/><path d="M36.63,15.34V16.6l-.95,2.79-.07-3.62Zm0,1.26V15.4l-.92.4.06,3.33Z" style="fill:#444343"/><path d="M34.33,6.93l2.29,6.78v1.67l-1,.44L34.29,6.94Zm2.25,6.79L34.37,7.19l1.28,8.56.93-.4Z" style="fill:#444343"/><path d="M35.26,5.17" style="fill:none;stroke:#444343;stroke-miterlimit:10"/><path d="M0,8.92l3.51.28L0,10.51Zm3.3.31L0,9v1.47Z" style="fill:#444343"/><path d="M3.43,9.18,2.29,16.77,0,15.9V10.46ZM2.25,16.71,3.38,9.25,0,10.49v5.38Z" style="fill:#444343"/><path d="M0,15.85l2.33.89L0,17.64Zm2.2.89L0,15.91v1.66Z" style="fill:#444343"/><path d="M10.5,7.8v0l2.74,6.12-.06,0L3.33,9.21Zm2.66,6-2.69-6-7,1.37Z" style="fill:#444343"/><path d="M24.41,11.15v0l.19,9.48L16.94,12.3h0Zm.14,9.38-.19-9.33L17,12.33Z" style="fill:#444343"/><path d="M17,12.27l0,0,7.66,8.36-9.47-4.23Zm7.5,8.25L17,12.35l-1.75,4.06Z" style="fill:#444343"/><path d="M20.53,8.11h0l3.9,3.07-7.51,1.15Zm3.8,3.05-3.8-3L17,12.28Z" style="fill:#444343"/><path d="M15.87,5.26v0L17,12.36l0,0L10.44,7.82Zm1.09,7L15.84,5.33l-5.31,2.5Z" style="fill:#444343"/><path d="M17,12.27l-1.81,4.19-2.07-2.58Zm-1.82,4.11,1.73-4L13.24,13.9Z" style="fill:#444343"/><path d="M10.43,7.76l.07,0L17,12.32l0,0-3.81,1.59v0Zm6.52,4.55L10.54,7.89l2.67,6Z" style="fill:#444343"/><circle cx="32.72" cy="26.79" r="0.44" style="fill:#282828"/><circle cx="21.23" cy="22.98" r="0.44" style="fill:#282828"/><circle cx="31.17" cy="17.88" r="0.35" style="fill:#282828"/><circle cx="27.57" cy="28.97" r="0.35" style="fill:#282828"/><circle cx="33.82" cy="28.6" r="0.18" style="fill:#282828"/><circle cx="33.87" cy="28.08" r="0.1" style="fill:#282828"/><circle cx="24.09" cy="23.31" r="0.25" style="fill:#282828"/><circle cx="23.21" cy="28.89" r="0.25" style="fill:#282828"/><circle cx="35.74" cy="19.3" r="0.25" style="fill:#282828"/><circle cx="6.59" cy="24.47" r="0.35" style="fill:#282828"/><circle cx="27.51" cy="17.06" r="0.44" style="fill:#282828"/><circle cx="26.19" cy="12.62" r="0.29" style="fill:#282828"/><circle cx="17.02" cy="12.36" r="0.29" style="fill:#282828"/><circle cx="10.46" cy="7.82" r="0.29" style="fill:#282828"/><circle cx="13.22" cy="13.92" r="0.29" style="fill:#282828"/><circle cx="2.26" cy="16.77" r="0.29" style="fill:#282828"/><circle cx="4.89" cy="24.43" r="0.29" style="fill:#282828"/><circle cx="6.77" cy="19.02" r="0.29" style="fill:#282828"/><circle cx="12.62" cy="28.24" r="0.29" style="fill:#282828"/><circle cx="12.18" cy="24.37" r="0.29" style="fill:#282828"/><circle cx="12.89" cy="23.58" r="0.17" style="fill:#282828"/><circle cx="12.91" cy="24.43" r="0.17" style="fill:#282828"/><circle cx="7.09" cy="20.86" r="0.29" style="fill:#282828"/><circle cx="15.83" cy="5.29" r="0.29" style="fill:#282828"/><circle cx="24.35" cy="11.21" r="0.29" style="fill:#282828"/><circle cx="35.6" cy="15.78" r="0.29" style="fill:#282828"/><circle cx="34.32" cy="6.9" r="0.29" style="fill:#282828"/><circle cx="20.53" cy="8.16" r="0.29" style="fill:#282828"/><circle cx="24.68" cy="20.54" r="0.56" style="fill:#282828"/><circle cx="15.3" cy="16.51" r="0.56" style="fill:#282828"/><circle cx="19.11" cy="31.27" r="0.56" style="fill:#282828"/><circle cx="3.42" cy="9.36" r="0.56" style="fill:#282828"/></g><path d="M34.31,29.68" style="fill:none;stroke:#444343;stroke-miterlimit:10"/><path d="M0,9.22l5,3L0,13.62ZM0,9.3v4.26l4.82-1.39Z" style="fill:#444343"/><path d="M0,19v-.52l2.28,1.36,0,0Zm0,0,2,.77L0,18.59Z" style="fill:#444343"/><path d="M0,18.56v-5l5-1.43L2.28,19.92Zm0-5v4.93l2.21,1.32,2.63-7.64Z" style="fill:#444343"/><path d="M23.16,7.73l4.49-.06-3.59,5.71Zm.05,0,.87,5.48,3.48-5.54Z" style="fill:#444343"/><path d="M23.19,7.65l.9,5.66v0l-2.84.39Zm0,.2-1.86,5.82L24,13.29Z" style="fill:#444343"/><path d="M19.1,5.24,23.2,7.73h0l-1.93,6Zm.07.1,2.12,8.27,1.87-5.85Z" style="fill:#444343"/><path d="M12.85,13l8.49.64-6.1,6.54,0,0Zm.06,0,2.31,7.07,6-6.45Z" style="fill:#444343"/><path d="M10.36,31.83" style="fill:none;stroke:#444343;stroke-miterlimit:10"/><polygon points="20.99 30.96 24.4 25.46 24.37 25.44 20.95 30.93 20.99 30.96" style="fill:#444343"/><path d="M21,30.95" style="fill:none;stroke:#444343;stroke-miterlimit:10"/><path d="M20.51,28.49h0l4-3.12L21,31Zm0,0L21,30.88l3.31-5.34Z" style="fill:#444343"/><path d="M21,30.95" style="fill:none;stroke:#444343;stroke-miterlimit:10"/><path d="M7,15.84,12.9,13l2.36,7.22Zm.1,0,8.06,4.31-2.31-7.06Z" style="fill:#444343"/><path d="M6.75,17.57h0l.32-1.76,8.18,4.38,0,0Zm0,0L15,20.11,7.09,15.88Z" style="fill:#444343"/><path d="M7.06,15.82l5.07-3.61.79.86L7.08,15.86Zm5.07-3.55L7.3,15.71l5.55-2.65Z" style="fill:#444343"/><path d="M6.6,12.12v0l5.59.13L7.05,15.88Zm0,0,.44,3.66,5-3.54Z" style="fill:#444343"/><path d="M7.1,15.78l-.33,1.77h0L2.09,20ZM7,15.9,2.44,19.77l4.29-2.24Z" style="fill:#444343"/><path d="M4.88,12.16l1.76-.06.46,3.86Zm.08,0L7,15.74l-.43-3.6Z" style="fill:#444343"/><path d="M4.9,12.17l0,0,2.17,3.71v0L2.22,20Zm0,.06L2.32,19.82l4.72-4Z" style="fill:#444343"/><path d="M6.55,12.13,12.62,8.3l0,0-.52,4Zm.15,0,5.4.12.5-3.85Z" style="fill:#444343"/><path d="M12.84,12.25l6.28-7,0,0,2.17,8.48Zm.09,0,8.33,1.44L19.13,5.33Z" style="fill:#444343"/><path d="M12.86,13.08v-.87l8.43,1.46v0Zm0,0,7.91.6-7.91-1.37Z" style="fill:#444343"/><path d="M12.61,8.32v0l6.62-3.09-6.33,7,0,0Zm0,0,.25,3.85L19,5.36Z" style="fill:#444343"/><path d="M12.07,12.22h.83v.9Zm.1,0,.68.74v-.74Z" style="fill:#444343"/><path d="M12.61,8.32h0l.25,3.94H12.1Zm0,.24-.47,3.66h.71Z" style="fill:#444343"/><path d="M34.25,29.7l2.37-2.15v2.28Zm.11,0,2.22.12V27.66Z" style="fill:#444343"/><path d="M10.36,31.83" style="fill:none;stroke:#444343;stroke-miterlimit:10"/><path d="M21.23,13.68l2.86-.39.52,2.79Zm.12,0L24.54,16l-.49-2.64Z" style="fill:#444343"/><path d="M21.27,13.68h0L24.62,16l-9.49,4.23Zm0,0-6,6.41L24.53,16Z" style="fill:#444343"/><path d="M13,22l2.4-2-2.19,2.74ZM13,22l.17.64,1.86-2.32Z" style="fill:#444343"/><path d="M6.62,17.48l8.6,2.7h0L13,22.07Zm.26.13L13,22l2.17-1.79Z" style="fill:#444343"/><path d="M0,27.66l3.46-.28L0,31.23Zm0,0v3.41l3.3-3.68Z" style="fill:#444343"/><path d="M3.39,27.39,13,22l.2.74L3.41,27.43ZM13,22.07l-9,5,9.14-4.36Z" style="fill:#444343"/><path d="M6.73,17.54v0L13.05,22,3.36,27.46Zm0,0L3.44,27.36,13,22Z" style="fill:#444343"/><path d="M3.4,27.41" style="fill:none;stroke:#444343;stroke-miterlimit:10"/><path d="M2.24,19.89v0L6.79,17.5,3.42,27.41l0,.09Zm0,0,1.12,7.41,3.3-9.72Z" style="fill:#444343"/><polygon points="0.04 31.19 3.42 27.42 3.39 27.39 0.01 31.16 0.04 31.19" style="fill:#444343"/><path d="M32.64,9.85v0l4,.34h0v5l-.93,2.29Zm3.94.35L32.7,9.86l3,7.43.88-2.17Z" style="fill:#444343"/><path d="M32.62,9.86l1.24-1.31,2.77,1v.61ZM33.87,8.6,32.71,9.82l3.87.33V9.63Z" style="fill:#444343"/><path d="M32.65,9.83l1.24-1.9v.66L32.68,9.85Zm1.2-1.74-1,1.56,1-1.07Z" style="fill:#444343"/><path d="M27.48,7.66,33.91,8,32.67,9.87Zm.26.06,4.92,2.09L33.82,8Z" style="fill:#444343"/><path d="M27.6,7.66l5.13,2.18L24,13.36Zm0,.06-3.49,5.55,8.48-3.43Z" style="fill:#444343"/><path d="M24,13.3l8.77-3.55-8.25,6.32Zm.05,0,.5,2.66,7.93-6.07Z" style="fill:#444343"/><path d="M20.55,28.45,21,31l-5.24.39Zm0,.07-4.57,2.78,5-.37Z" style="fill:#444343"/><polygon points="15.86 31.35 20.98 30.97 20.97 30.92 15.85 31.3 15.86 31.35" style="fill:#444343"/><path d="M26.1,24.05l9.52-3.24h0l-1.33,8.88v0Zm.1,0,8.08,5.58,1.32-8.77Z" style="fill:#444343"/><polygon points="34.3 29.7 34.32 29.66 26.17 24.04 26.14 24.08 34.3 29.7" style="fill:#444343"/><path d="M24.54,15.95l3,3.68-1.42,4.52Zm.08.17L26.16,24l1.36-4.33Z" style="fill:#444343"/><polygon points="24.4 25.47 26.17 24.08 26.14 24.04 24.37 25.43 24.4 25.47" style="fill:#444343"/><path d="M24.56,15.82l1.62,8.23h0L24.36,25.5Zm0,.43-.18,9.16L26.13,24Z" style="fill:#444343"/><path d="M35.61,17.36l1-.32v.56Zm.17,0,.79.19v-.43Z" style="fill:#444343"/><path d="M36.63,15v2.08l-1,.3Zm0,.23-.84,2.08.84-.27Z" style="fill:#444343"/><path d="M31,18.74l4.67-1.41h0l-.06,3.54Zm.13,0,4.46,2,.06-3.41Z" style="fill:#444343"/><path d="M32.66,9.76l3.06,7.6v0l-4.67,1.41Zm0,.16-1.56,8.8,4.55-1.37Z" style="fill:#444343"/><path d="M31.08,18.72l4.62,2.12-9.54,3.24-.09,0Zm0,.06L26.23,24l9.34-3.18Z" style="fill:#444343"/><path d="M24.53,16l8.12-6.22,0,0-1.6,9Zm.09,0,6.45,2.69,1.57-8.83Z" style="fill:#444343"/><path d="M27.53,19.62l3.63-.91-5,5.44Zm0,0L26.21,24,31,18.79Z" style="fill:#444343"/><path d="M24.5,16l6.66,2.78-3.62.9Zm.15.11,2.9,3.52L31,18.74Z" style="fill:#444343"/><path d="M36.63,22.77v4.85l-2.37,2.14Zm0,.28-2.22,6.56,2.22-2Z" style="fill:#444343"/><path d="M35.66,17.33l1,.22v2.62Zm.07.06.85,2.5v-2.3Z" style="fill:#444343"/><path d="M35.61,20.85l.07-3.62.95,2.8v1.27Zm.11-3.36-.06,3.33.92.4V20Z" style="fill:#444343"/><path d="M34.29,29.68l1.33-8.88,1,.44v1.67l-2.29,6.78Zm2.29-8.41-.93-.4-1.28,8.56,2.21-6.53Z" style="fill:#444343"/><path d="M35.26,31.45" style="fill:none;stroke:#444343;stroke-miterlimit:10"/><path d="M0,26.12l3.51,1.3L0,27.71Zm0,.07v1.47l3.25-.26Z" style="fill:#444343"/><path d="M0,26.17V20.73l2.29-.87,1.15,7.59Zm0-5.41v5.38l3.33,1.24L2.25,19.92Z" style="fill:#444343"/><path d="M0,19l2.33.91L0,20.78ZM0,19v1.66l2.16-.82Z" style="fill:#444343"/><path d="M3.33,27.42l9.86-4.71.06,0L10.5,28.81v0Zm.14,0,7,1.37,2.69-6Z" style="fill:#444343"/><path d="M17,24.33h0L24.6,16l-.19,9.48v0Zm0,0,7.33,1.13.19-9.33Z" style="fill:#444343"/><path d="M15.19,20.19,24.67,16,17,24.33l0,0Zm.06,0L17,24.27l7.48-8.17Z" style="fill:#444343"/><path d="M16.93,24.28l7.51,1.16-3.9,3.07h0Zm.11.06,3.49,4.11,3.8-3Z" style="fill:#444343"/><path d="M10.44,28.8,17,24.29l0,0-1.15,7.07v0Zm.09,0,5.31,2.5L17,24.36Z" style="fill:#444343"/><path d="M13.16,22.74l2.07-2.58L17,24.35Zm.07,0,3.71,1.55-1.73-4Z" style="fill:#444343"/><path d="M13.18,22.72v0L17,24.29h0L10.5,28.82l-.07,0Zm0,0-2.67,6,6.41-4.42Z" style="fill:#444343"/><circle cx="32.72" cy="9.84" r="0.44" style="fill:#282828"/><circle cx="21.23" cy="13.65" r="0.44" style="fill:#282828"/><circle cx="31.17" cy="18.74" r="0.35" style="fill:#282828"/><circle cx="27.57" cy="7.66" r="0.35" style="fill:#282828"/><circle cx="33.82" cy="8.03" r="0.18" style="fill:#282828"/><circle cx="33.87" cy="8.54" r="0.1" style="fill:#282828"/><circle cx="24.09" cy="13.31" r="0.25" style="fill:#282828"/><circle cx="23.21" cy="7.73" r="0.25" style="fill:#282828"/><circle cx="35.74" cy="17.32" r="0.25" style="fill:#282828"/><circle cx="6.59" cy="12.16" r="0.35" style="fill:#282828"/><circle cx="27.51" cy="19.56" r="0.44" style="fill:#282828"/><circle cx="26.19" cy="24" r="0.29" style="fill:#282828"/><circle cx="17.02" cy="24.26" r="0.29" style="fill:#282828"/><circle cx="10.46" cy="28.81" r="0.29" style="fill:#282828"/><circle cx="13.22" cy="22.71" r="0.29" style="fill:#282828"/><circle cx="2.26" cy="19.86" r="0.29" style="fill:#282828"/><circle cx="4.89" cy="12.2" r="0.29" style="fill:#282828"/><circle cx="6.77" cy="17.6" r="0.29" style="fill:#282828"/><circle cx="12.62" cy="8.38" r="0.29" style="fill:#282828"/><circle cx="12.18" cy="12.25" r="0.29" style="fill:#282828"/><circle cx="12.89" cy="13.05" r="0.17" style="fill:#282828"/><circle cx="12.91" cy="12.19" r="0.17" style="fill:#282828"/><circle cx="7.09" cy="15.76" r="0.29" style="fill:#282828"/><circle cx="15.83" cy="31.33" r="0.29" style="fill:#282828"/><circle cx="24.35" cy="25.42" r="0.29" style="fill:#282828"/><circle cx="35.6" cy="20.85" r="0.29" style="fill:#282828"/><circle cx="34.32" cy="29.72" r="0.29" style="fill:#282828"/><circle cx="20.53" cy="28.46" r="0.29" style="fill:#282828"/><circle cx="24.68" cy="16.09" r="0.56" style="fill:#282828"/><circle cx="15.3" cy="20.11" r="0.56" style="fill:#282828"/><circle cx="19.11" cy="5.36" r="0.56" style="fill:#282828"/><circle cx="3.42" cy="27.26" r="0.56" style="fill:#282828"/><rect x="5.81" y="5.81" width="25" height="25" style="fill:none"/></g></g><g style="clip-path:url(#d)"><g style="mask:url(#g)"><g style="opacity:0.25"><path d="M29.68,34.31" style="fill:none;stroke:#444343;stroke-miterlimit:10"/><path d="M13.63,0,12.18,5l-3-5ZM12.17,4.86,13.56,0H9.3Z" style="fill:#444343"/><path d="M19.91,2.26l0,0L18.51,0H19ZM18.59,0l1.18,2L19,0Z" style="fill:#444343"/><path d="M19.92,2.28,12.14,5l1.43-5h5ZM12.21,4.88l7.64-2.63L18.54,0H13.61Z" style="fill:#444343"/><path d="M13.38,24.06,7.67,27.65l.06-4.49ZM7.71,27.57l5.54-3.48-5.47-.87Z" style="fill:#444343"/><path d="M13.72,21.26l-.39,2.84h0l-5.66-.9ZM13.29,24l.37-2.72L7.85,23.18Z" style="fill:#444343"/><path d="M13.78,21.29l-6,1.93h0L5.24,19.1Zm-6,1.87,5.85-1.87L5.34,19.18Z" style="fill:#444343"/><path d="M20.25,15.21l0,0-6.55,6.1L13,12.85Zm-6.53,6,6.45-6-7.07-2.31Z" style="fill:#444343"/><path d="M31.83,10.36" style="fill:none;stroke:#444343;stroke-miterlimit:10"/><polygon points="30.96 20.99 25.46 24.4 25.44 24.37 30.93 20.95 30.96 20.99" style="fill:#444343"/><path d="M30.95,21" style="fill:none;stroke:#444343;stroke-miterlimit:10"/><path d="M31,21l-5.66,3.51,3.12-4h0ZM25.55,24.3,30.88,21l-2.39-.43Z" style="fill:#444343"/><path d="M30.95,21" style="fill:none;stroke:#444343;stroke-miterlimit:10"/><path d="M20.25,15.26,13,12.9,15.84,7Zm-7.16-2.39,7.06,2.31L15.84,7.12Z" style="fill:#444343"/><path d="M20.22,15.22l0,0L15.81,7.05l1.76-.32v0ZM15.88,7.09,20.11,15,17.53,6.78Z" style="fill:#444343"/><path d="M15.86,7.08l-2.79,5.84-.86-.79,3.61-5.07Zm-2.81,5.77L15.71,7.3l-3.44,4.83Z" style="fill:#444343"/><path d="M15.88,7.05,12.22,12.2,12.09,6.6h0Zm-3.62,5,3.54-5-3.66-.44Z" style="fill:#444343"/><path d="M20,2.09,17.56,6.77h0l-1.77.33ZM17.54,6.73l2.24-4.29L15.9,7Z" style="fill:#444343"/><path d="M15.95,7.1l-3.86-.46.07-1.76Zm-3.81-.5,3.6.43L12.2,5Z" style="fill:#444343"/><path d="M20,2.22,15.85,7.1h0L12.12,4.92l0,0ZM15.84,7l4-4.72L12.23,4.93Z" style="fill:#444343"/><path d="M12.26,12.14l-4,.52,0,0,3.83-6.07Zm-3.9.46,3.85-.5-.12-5.4Z" style="fill:#444343"/><path d="M13.72,21.32,5.24,19.15l0,0,7-6.28ZM5.33,19.13l8.33,2.13-1.44-8.33Z" style="fill:#444343"/><path d="M13.72,21.29h0l-1.46-8.43h.87Zm-1.45-8.38,1.37,7.91L13,12.91Z" style="fill:#444343"/><path d="M12.3,12.87l0,0-7,6.33,3.09-6.62h0ZM5.36,19l6.83-6.14-3.85-.25Z" style="fill:#444343"/><path d="M13.12,12.91h-.9v-.83Zm-.86,0H13l-.74-.68Z" style="fill:#444343"/><path d="M12.26,12.1v.81l-3.94-.25v0Zm0,.76v-.71l-3.66.47Z" style="fill:#444343"/><path d="M29.83,36.63H27.55l2.15-2.37Zm-2.17,0h2.12l-.12-2.22Z" style="fill:#444343"/><path d="M31.83,10.36" style="fill:none;stroke:#444343;stroke-miterlimit:10"/><path d="M16.08,24.61l-2.79-.52.39-2.86Zm-2.74-.56,2.64.49-2.27-3.19Z" style="fill:#444343"/><path d="M20.27,15.13,16,24.62l-2.37-3.34h0ZM16,24.53l4.11-9.21-6.41,6Z" style="fill:#444343"/><path d="M22.78,13.19,20,15.38,22,13Zm-2.42,1.88,2.32-1.86L22,13Z" style="fill:#444343"/><path d="M22.06,13l-1.87,2.26v0l-2.7-8.6Zm-1.85,2.17L22,13,17.61,6.88Z" style="fill:#444343"/><path d="M31.23,0,27.38,3.46,27.66,0Zm-3.8,3.35L31.12,0H27.7Z" style="fill:#444343"/><path d="M27.43,3.41l-4.68,9.81L22,13l5.39-9.63Zm-4.71,9.76L27.08,4l-5,9Z" style="fill:#444343"/><path d="M27.46,3.36,22,13.05,17.51,6.74h0ZM22,13l5.33-9.52L17.59,6.77Z" style="fill:#444343"/><path d="M27.41,3.4" style="fill:none;stroke:#444343;stroke-miterlimit:10"/><path d="M27.5,3.4l-.09,0L17.5,6.79l2.37-4.55h0ZM17.59,6.71l9.72-3.3L19.9,2.29Z" style="fill:#444343"/><polygon points="31.19 0.04 27.42 3.42 27.39 3.39 31.16 0.01 31.19 0.04" style="fill:#444343"/><path d="M17.42,35.7l-2.29.93h-5v0l-.34-4h0Zm-2.29.88,2.17-.88-7.43-3,.33,3.88Z" style="fill:#444343"/><path d="M10.2,36.63H9.59l-1-2.77,1.31-1.24Zm-.58,0h.53l-.33-3.87L8.6,33.87Z" style="fill:#444343"/><path d="M9.85,32.68,8.58,33.89H7.93l1.9-1.24ZM8.57,33.84l1.07-1-1.56,1Z" style="fill:#444343"/><path d="M9.87,32.67,8,33.91l-.33-6.43ZM8,33.82l1.78-1.17L7.72,27.74Z" style="fill:#444343"/><path d="M13.36,24,9.84,32.72,7.66,27.6ZM9.84,32.61l3.43-8.48L7.72,27.62Z" style="fill:#444343"/><path d="M16.07,24.56,9.75,32.81,13.3,24Zm-6.15,8L16,24.59l-2.66-.5Z" style="fill:#444343"/><path d="M31.36,15.76,31,21l-2.52-.45Zm-.43,5.18.37-5-2.78,4.57Z" style="fill:#444343"/><polygon points="31.35 15.86 30.97 20.98 30.93 20.97 31.3 15.85 31.35 15.86" style="fill:#444343"/><path d="M29.72,34.32h0L20.8,35.66v0l3.24-9.52Zm-8.85,1.28,8.77-1.32-5.58-8.08Z" style="fill:#444343"/><polygon points="29.7 34.3 29.66 34.32 24.04 26.17 24.08 26.14 29.7 34.3" style="fill:#444343"/><path d="M24.15,26.15l-4.52,1.42-3.68-3Zm-4.51,1.37L24,26.16l-7.85-1.54Z" style="fill:#444343"/><polygon points="25.47 24.4 24.08 26.17 24.04 26.14 25.43 24.37 25.47 24.4" style="fill:#444343"/><path d="M25.5,24.36l-1.43,1.82h0l-8.23-1.62ZM24,26.13l1.35-1.72-9.16.18Z" style="fill:#444343"/><path d="M17.6,36.63H17l.32-1Zm-.5,0h.44l-.18-.79Z" style="fill:#444343"/><path d="M17.4,35.66l-.3,1H15Zm-.34.92.27-.84-2.08.84Z" style="fill:#444343"/><path d="M20.87,35.66l-3.54.06v0L18.75,31Zm-3.48,0,3.41-.06-2-4.46Z" style="fill:#444343"/><path d="M18.78,31.06l-1.41,4.67h0l-7.6-3.06Zm-1.44,4.61,1.37-4.55-8.8,1.56Z" style="fill:#444343"/><path d="M24.11,26.08l0,.09L20.84,35.7l-2.12-4.62Zm-3.28,9.5L24,26.23l-5.23,4.86Z" style="fill:#444343"/><path d="M18.78,31.1l-9,1.6,0,0L16,24.53ZM9.89,32.63l8.82-1.57L16,24.62Z" style="fill:#444343"/><path d="M24.15,26.1l-5.44,5,.91-3.63ZM18.79,31,24,26.21l-4.32,1.36Z" style="fill:#444343"/><path d="M19.66,27.54l-.91,3.62L16,24.5ZM18.74,31l.86-3.46-3.52-2.9Z" style="fill:#444343"/><path d="M29.76,34.26l-2.14,2.37H22.77Zm-2.16,2.32,2-2.22L23,36.58Z" style="fill:#444343"/><path d="M20.17,36.63H17.55l-.22-1Zm-2.58,0h2.3l-2.5-.85Z" style="fill:#444343"/><path d="M21.29,36.63H20l-2.79-.95,3.62-.07Zm-1.26,0h1.19l-.4-.92-3.33.06Z" style="fill:#444343"/><path d="M29.69,34.33l-6.78,2.29H21.24l-.44-1,8.88-1.33ZM22.9,36.58l6.53-2.21-8.56,1.28.4.93Z" style="fill:#444343"/><path d="M31.45,35.26" style="fill:none;stroke:#444343;stroke-miterlimit:10"/><path d="M27.71,0l-.28,3.51L26.12,0Zm-.31,3.3L27.66,0H26.19Z" style="fill:#444343"/><path d="M27.44,3.43,19.86,2.29,20.73,0h5.44ZM19.92,2.25l7.45,1.13L26.14,0H20.76Z" style="fill:#444343"/><path d="M20.78,0l-.89,2.33L19,0Zm-.89,2.2L20.71,0H19Z" style="fill:#444343"/><path d="M28.82,10.5h0l-6.12,2.74,0-.06,4.71-9.86Zm-6,2.66,6-2.69-1.37-7Z" style="fill:#444343"/><path d="M25.48,24.41h0L16,24.6l8.35-7.65v0Zm-9.38.14,9.33-.19L24.29,17Z" style="fill:#444343"/><path d="M24.35,17l0,0L16,24.67l4.23-9.47Zm-8.25,7.5L24.27,17l-4.06-1.75Z" style="fill:#444343"/><path d="M28.51,20.53v0l-3.07,3.9-1.16-7.51Zm-3.05,3.8,3-3.8L24.34,17Z" style="fill:#444343"/><path d="M31.36,15.87h0L24.26,17l0,0,4.51-6.54Zm-7,1.09,6.93-1.12-2.5-5.31Z" style="fill:#444343"/><path d="M24.35,17l-4.19-1.81,2.58-2.07Zm-4.11-1.82,4,1.73-1.55-3.71Z" style="fill:#444343"/><path d="M28.86,10.43l0,.07L24.31,17l0,0L22.7,13.19h0Zm-4.55,6.52,4.42-6.41-6,2.67Z" style="fill:#444343"/><circle cx="9.84" cy="32.72" r="0.44" style="fill:#282828"/><circle cx="13.65" cy="21.23" r="0.44" style="fill:#282828"/><circle cx="18.74" cy="31.17" r="0.35" style="fill:#282828"/><circle cx="7.66" cy="27.57" r="0.35" style="fill:#282828"/><circle cx="8.03" cy="33.82" r="0.18" style="fill:#282828"/><circle cx="8.54" cy="33.87" r="0.1" style="fill:#282828"/><circle cx="13.31" cy="24.09" r="0.25" style="fill:#282828"/><circle cx="7.73" cy="23.21" r="0.25" style="fill:#282828"/><circle cx="17.32" cy="35.74" r="0.25" style="fill:#282828"/><circle cx="12.16" cy="6.59" r="0.35" style="fill:#282828"/><circle cx="19.56" cy="27.51" r="0.44" style="fill:#282828"/><circle cx="24" cy="26.19" r="0.29" style="fill:#282828"/><circle cx="24.26" cy="17.02" r="0.29" style="fill:#282828"/><circle cx="28.81" cy="10.46" r="0.29" style="fill:#282828"/><circle cx="22.71" cy="13.22" r="0.29" style="fill:#282828"/><circle cx="19.86" cy="2.26" r="0.29" style="fill:#282828"/><circle cx="12.2" cy="4.89" r="0.29" style="fill:#282828"/><circle cx="17.6" cy="6.77" r="0.29" style="fill:#282828"/><circle cx="8.38" cy="12.62" r="0.29" style="fill:#282828"/><circle cx="12.25" cy="12.18" r="0.29" style="fill:#282828"/><circle cx="13.05" cy="12.89" r="0.17" style="fill:#282828"/><circle cx="12.19" cy="12.91" r="0.17" style="fill:#282828"/><circle cx="15.76" cy="7.09" r="0.29" style="fill:#282828"/><circle cx="31.33" cy="15.83" r="0.29" style="fill:#282828"/><circle cx="25.42" cy="24.35" r="0.29" style="fill:#282828"/><circle cx="20.85" cy="35.6" r="0.29" style="fill:#282828"/><circle cx="29.72" cy="34.32" r="0.29" style="fill:#282828"/><circle cx="28.47" cy="20.53" r="0.29" style="fill:#282828"/><circle cx="16.09" cy="24.68" r="0.56" style="fill:#282828"/><circle cx="20.11" cy="15.3" r="0.56" style="fill:#282828"/><circle cx="5.36" cy="19.11" r="0.56" style="fill:#282828"/><circle cx="27.26" cy="3.42" r="0.56" style="fill:#282828"/></g><path d="M6.94,34.31" style="fill:none;stroke:#444343;stroke-miterlimit:10"/><path d="M27.4,0l-3,5L23,0Zm-.08,0H23.06l1.39,4.82Z" style="fill:#444343"/><path d="M17.59,0h.52L16.76,2.28l0,0Zm0,0-.77,2L18,0Z" style="fill:#444343"/><path d="M18.06,0h5l1.43,5L16.7,2.28Zm5,0H18.09L16.77,2.25l7.64,2.63Z" style="fill:#444343"/><path d="M28.89,23.16,29,27.65l-5.71-3.59Zm0,.05-5.48.87,5.54,3.48Z" style="fill:#444343"/><path d="M29,23.19l-5.66.9h0l-.39-2.84Zm-.2,0L23,21.32,23.33,24Z" style="fill:#444343"/><path d="M31.39,19.1,28.89,23.2h0l-6-1.93Zm-.1.07L23,21.29l5.85,1.87Z" style="fill:#444343"/><path d="M23.59,12.85,23,21.34l-6.54-6.1,0,0Zm0,.06-7.07,2.31,6.45,6Z" style="fill:#444343"/><path d="M4.79,10.36" style="fill:none;stroke:#444343;stroke-miterlimit:10"/><polygon points="5.67 20.99 11.16 24.4 11.19 24.37 5.69 20.95 5.67 20.99" style="fill:#444343"/><path d="M5.68,21" style="fill:none;stroke:#444343;stroke-miterlimit:10"/><path d="M8.14,20.51h0l3.12,4L5.62,21Zm0,0L5.74,21l5.34,3.31Z" style="fill:#444343"/><path d="M5.68,21" style="fill:none;stroke:#444343;stroke-miterlimit:10"/><path d="M20.78,7,23.6,12.9l-7.22,2.36Zm0,.1-4.31,8.06,7.06-2.31Z" style="fill:#444343"/><path d="M19.05,6.75v0l1.76.32-4.38,8.18,0,0Zm0,0L16.52,15l4.23-7.91Z" style="fill:#444343"/><path d="M20.8,7.06l3.62,5.07-.86.79L20.76,7.08Zm3.55,5.07L20.92,7.3l2.65,5.55Z" style="fill:#444343"/><path d="M24.51,6.6h0l-.13,5.59L20.74,7.05Zm0,0-3.66.44,3.54,5Z" style="fill:#444343"/><path d="M20.84,7.1l-1.77-.33h0L16.62,2.09ZM20.72,7,16.85,2.44l2.24,4.29Z" style="fill:#444343"/><path d="M24.47,4.88l.06,1.76-3.86.46Zm0,.08L20.89,7l3.6-.43Z" style="fill:#444343"/><path d="M24.46,4.9l0,0L20.79,7.09h0L16.67,2.22Zm-.06,0L16.81,2.32l4,4.72Z" style="fill:#444343"/><path d="M24.49,6.55l3.83,6.07,0,0-4-.52Zm0,.15-.12,5.4,3.85.5Z" style="fill:#444343"/><path d="M24.37,12.84l7,6.28,0,0L22.9,21.32Zm0,.09L23,21.26l8.33-2.13Z" style="fill:#444343"/><path d="M23.54,12.86h.87L23,21.29h0Zm0,0L23,20.82l1.37-7.91Z" style="fill:#444343"/><path d="M28.3,12.61h0l3.09,6.62-7-6.33,0,0Zm0,0-3.85.25L31.27,19Z" style="fill:#444343"/><path d="M24.41,12.07v.83h-.9Zm0,.1-.74.68h.74Z" style="fill:#444343"/><path d="M28.31,12.61v0l-3.94.25V12.1Zm-.24,0-3.66-.47v.71Z" style="fill:#444343"/><path d="M6.92,34.25l2.15,2.37H6.8Zm0,.11-.12,2.22H9Z" style="fill:#444343"/><path d="M4.79,10.36" style="fill:none;stroke:#444343;stroke-miterlimit:10"/><path d="M22.95,21.23l.39,2.86-2.79.52Zm0,.12-2.27,3.19,2.64-.49Z" style="fill:#444343"/><path d="M22.95,21.27h0l-2.37,3.34-4.23-9.49Zm0,0-6.41-6,4.11,9.21Z" style="fill:#444343"/><path d="M14.6,13l2,2.4-2.74-2.19Zm0,.05-.64.17,2.32,1.86Z" style="fill:#444343"/><path d="M19.14,6.62l-2.7,8.6v0L14.56,13ZM19,6.88,14.62,13l1.79,2.17Z" style="fill:#444343"/><path d="M9,0l.28,3.46L5.39,0Zm0,0H5.51l3.68,3.3Z" style="fill:#444343"/><path d="M9.24,3.39,14.62,13l-.74.2L9.2,3.41ZM14.56,13l-5-9,4.36,9.14Z" style="fill:#444343"/><path d="M19.08,6.73h0l-4.53,6.31L9.17,3.36Zm0,0L9.27,3.44,14.59,13Z" style="fill:#444343"/><path d="M9.22,3.4" style="fill:none;stroke:#444343;stroke-miterlimit:10"/><path d="M16.73,2.24h0l2.37,4.55L9.21,3.42l-.09,0Zm0,0L9.31,3.41,19,6.71Z" style="fill:#444343"/><polygon points="5.44 0.04 9.2 3.42 9.23 3.39 5.47 0.01 5.44 0.04" style="fill:#444343"/><path d="M26.78,32.64h0l-.34,4v0h-5L19.2,35.7Zm-.35,3.94.33-3.88-7.43,3,2.17.88Z" style="fill:#444343"/><path d="M26.77,32.62l1.31,1.24-1,2.77h-.61ZM28,33.87,26.8,32.71l-.33,3.87H27Z" style="fill:#444343"/><path d="M26.8,32.65l1.9,1.24H28l-1.27-1.21Zm1.74,1.2-1.56-1,1.07,1Z" style="fill:#444343"/><path d="M29,27.48l-.32,6.43-1.88-1.23Zm-.06.26-2.09,4.92,1.78,1.17Z" style="fill:#444343"/><path d="M29,27.6l-2.18,5.13L23.26,24Zm-.06,0-5.55-3.49,3.43,8.48Z" style="fill:#444343"/><path d="M23.33,24l3.54,8.77-6.32-8.25Zm0,.05-2.66.5,6.07,7.93Z" style="fill:#444343"/><path d="M8.18,20.55,5.66,21l-.39-5.24Zm-.07,0L5.33,15.95l.37,5Z" style="fill:#444343"/><polygon points="5.28 15.86 5.66 20.98 5.7 20.97 5.32 15.85 5.28 15.86" style="fill:#444343"/><path d="M12.57,26.1l3.24,9.52v0L6.94,34.33h0Zm0,.1L7,34.29l8.77,1.32Z" style="fill:#444343"/><polygon points="6.92 34.3 6.96 34.32 12.59 26.17 12.55 26.14 6.92 34.3" style="fill:#444343"/><path d="M20.68,24.54l-3.68,3-4.52-1.42Zm-.17.08-7.85,1.54L17,27.52Z" style="fill:#444343"/><polygon points="11.16 24.4 12.55 26.17 12.58 26.14 11.2 24.37 11.16 24.4" style="fill:#444343"/><path d="M20.81,24.56l-8.23,1.62h0l-1.43-1.82Zm-.43,0-9.16-.18,1.35,1.72Z" style="fill:#444343"/><path d="M19.26,35.61l.32,1H19Zm0,.17-.19.79h.43Z" style="fill:#444343"/><path d="M21.61,36.63H19.53l-.3-1Zm-.24,0-2.08-.84.27.84Z" style="fill:#444343"/><path d="M17.88,31l1.41,4.67v0l-3.54-.06Zm0,.13-2,4.46,3.41.06Z" style="fill:#444343"/><path d="M26.87,32.66l-7.6,3.06h0l-1.41-4.67Zm-.16,0-8.8-1.56,1.37,4.55Z" style="fill:#444343"/><path d="M17.9,31.08,15.79,35.7l-3.24-9.54,0-.09Zm-.06,0-5.23-4.86,3.18,9.34Z" style="fill:#444343"/><path d="M20.59,24.53l6.22,8.12,0,0-9-1.6Zm0,.09-2.69,6.45,8.83,1.57Z" style="fill:#444343"/><path d="M17,27.53l.91,3.63-5.44-5Zm0,0-4.31-1.36L17.83,31Z" style="fill:#444343"/><path d="M20.65,24.5l-2.78,6.66L17,27.54Zm-.11.15L17,27.55,17.88,31Z" style="fill:#444343"/><path d="M13.86,36.63H9L6.87,34.26Zm-.28,0L7,34.36l2,2.22Z" style="fill:#444343"/><path d="M19.3,35.66l-.22,1H16.46Zm-.06.07-2.5.85H19Z" style="fill:#444343"/><path d="M15.77,35.61l3.62.07-2.8.95H15.33Zm3.36.11-3.33-.06-.4.92h1.19Z" style="fill:#444343"/><path d="M6.95,34.29l8.88,1.33-.44,1H13.72L6.93,34.33Zm8.41,2.29.4-.93L7.19,34.37l6.53,2.21Z" style="fill:#444343"/><path d="M5.17,35.26" style="fill:none;stroke:#444343;stroke-miterlimit:10"/><path d="M10.5,0,9.2,3.51,8.92,0Zm-.07,0H9L9.23,3.3Z" style="fill:#444343"/><path d="M10.46,0H15.9l.87,2.29L9.18,3.43Zm5.41,0H10.49L9.25,3.38l7.45-1.13Z" style="fill:#444343"/><path d="M17.64,0l-.91,2.33L15.85,0Zm-.07,0H15.91l.82,2.16Z" style="fill:#444343"/><path d="M9.21,3.33l4.71,9.86,0,.06L7.82,10.5h0Zm0,.14-1.37,7,6,2.69Z" style="fill:#444343"/><path d="M12.29,17v0l8.35,7.65-9.48-.19h0Zm0,0L11.2,24.36l9.33.19Z" style="fill:#444343"/><path d="M16.43,15.19l4.22,9.47L12.3,17l0,0Zm0,.06L12.36,17l8.17,7.48Z" style="fill:#444343"/><path d="M12.35,16.93l-1.16,7.51-3.07-3.9v0Zm-.06.11L8.17,20.53l3,3.8Z" style="fill:#444343"/><path d="M7.82,10.44,12.33,17l0,0L5.29,15.88h0Zm0,.09-2.5,5.31L12.27,17Z" style="fill:#444343"/><path d="M13.88,13.16l2.58,2.07L12.27,17Zm0,.07-1.55,3.71,4-1.73Z" style="fill:#444343"/><path d="M13.9,13.18h0L12.33,17v0L7.81,10.5l0-.07Zm0,0-6-2.67,4.42,6.41Z" style="fill:#444343"/><circle cx="26.79" cy="32.72" r="0.44" style="fill:#282828"/><circle cx="22.98" cy="21.23" r="0.44" style="fill:#282828"/><circle cx="17.89" cy="31.17" r="0.35" style="fill:#282828"/><circle cx="28.97" cy="27.57" r="0.35" style="fill:#282828"/><circle cx="28.6" cy="33.82" r="0.18" style="fill:#282828"/><circle cx="28.08" cy="33.87" r="0.1" style="fill:#282828"/><circle cx="23.31" cy="24.09" r="0.25" style="fill:#282828"/><circle cx="28.89" cy="23.21" r="0.25" style="fill:#282828"/><circle cx="19.3" cy="35.74" r="0.25" style="fill:#282828"/><circle cx="24.47" cy="6.59" r="0.35" style="fill:#282828"/><circle cx="17.06" cy="27.51" r="0.44" style="fill:#282828"/><circle cx="12.62" cy="26.19" r="0.29" style="fill:#282828"/><circle cx="12.36" cy="17.02" r="0.29" style="fill:#282828"/><circle cx="7.82" cy="10.46" r="0.29" style="fill:#282828"/><circle cx="13.92" cy="13.22" r="0.29" style="fill:#282828"/><circle cx="16.77" cy="2.26" r="0.29" style="fill:#282828"/><circle cx="24.43" cy="4.89" r="0.29" style="fill:#282828"/><circle cx="19.02" cy="6.77" r="0.29" style="fill:#282828"/><circle cx="28.24" cy="12.62" r="0.29" style="fill:#282828"/><circle cx="24.37" cy="12.18" r="0.29" style="fill:#282828"/><circle cx="23.58" cy="12.89" r="0.17" style="fill:#282828"/><circle cx="24.43" cy="12.91" r="0.17" style="fill:#282828"/><circle cx="20.86" cy="7.09" r="0.29" style="fill:#282828"/><circle cx="5.29" cy="15.83" r="0.29" style="fill:#282828"/><circle cx="11.21" cy="24.35" r="0.29" style="fill:#282828"/><circle cx="15.78" cy="35.6" r="0.29" style="fill:#282828"/><circle cx="6.9" cy="34.32" r="0.29" style="fill:#282828"/><circle cx="8.16" cy="20.53" r="0.29" style="fill:#282828"/><circle cx="20.54" cy="24.68" r="0.56" style="fill:#282828"/><circle cx="16.51" cy="15.3" r="0.56" style="fill:#282828"/><circle cx="31.27" cy="19.11" r="0.56" style="fill:#282828"/><circle cx="9.36" cy="3.42" r="0.56" style="fill:#282828"/><rect x="5.81" y="5.81" width="25" height="25" style="fill:none"/></g></g></svg>