<svg xmlns="http://www.w3.org/2000/svg" xmlns:xlink="http://www.w3.org/1999/xlink" viewBox="0 0 51.13 61.47"><defs><style>.cls-1{stroke:#000;stroke-width:0.25px;fill:url(#Gradiente_sem_nome_32);}.cls-1,.cls-3{stroke-miterlimit:10;}.cls-2{fill:url(#Gradiente_sem_nome_32-2);}.cls-3{fill:none;stroke:#211915;}.cls-4,.cls-5{font-size:43.46px;font-family:MyriadPro-Regular, Myriad Pro;}.cls-4{fill:#999;}.cls-5{fill:#f2f2f2;}</style><linearGradient id="Gradiente_sem_nome_32" x1="16.34" y1="9.92" x2="27.63" y2="58.83" gradientUnits="userSpaceOnUse"><stop offset="0" stop-color="#3b007f"/><stop offset="0.28" stop-color="#3b0081" stop-opacity="0.98"/><stop offset="0.45" stop-color="#3a0088" stop-opacity="0.91"/><stop offset="0.59" stop-color="#390094" stop-opacity="0.8"/><stop offset="0.72" stop-color="#3800a5" stop-opacity="0.64"/><stop offset="0.83" stop-color="#3600bb" stop-opacity="0.43"/><stop offset="0.94" stop-color="#3400d5" stop-opacity="0.18"/><stop offset="1" stop-color="#3200e9" stop-opacity="0"/></linearGradient><linearGradient id="Gradiente_sem_nome_32-2" x1="19.96" y1="1.26" x2="26.66" y2="30.29" xlink:href="#Gradiente_sem_nome_32"/></defs><title>Ativo 8</title><g id="Camada_2" data-name="Camada 2"><g id="Camada_3" data-name="Camada 3"><path class="cls-1" d="M.7,47.71,21.62,10.2a4.46,4.46,0,0,1,7.78,0l21,37.51a4.46,4.46,0,0,1-3.89,6.64H4.59A4.46,4.46,0,0,1,.7,47.71Z"/><path class="cls-2" d="M39.19,27.34h0A2,2,0,0,0,41,24.27L27.43,1a2,2,0,0,0-3.52,0L10.08,24.26a2,2,0,0,0,1.75,3.08h.35a2,2,0,0,0,1.76-1l10-16.89a2,2,0,0,1,3.51,0l10,16.89A2,2,0,0,0,39.19,27.34Z"/><path class="cls-3" d="M4.56,41.38"/><path class="cls-3" d="M25.51,51.72"/><text class="cls-4" transform="translate(17.7 50.6)">?</text><text class="cls-5" transform="translate(18.72 50.59)">?</text></g></g></svg>