<svg xmlns="http://www.w3.org/2000/svg" xmlns:xlink="http://www.w3.org/1999/xlink" viewBox="0 0 51.13 54.46"><defs><style>.cls-1{stroke:#000;stroke-width:0.25px;fill:url(#Gradiente_sem_nome_32);}.cls-1,.cls-3,.cls-4{stroke-miterlimit:10;}.cls-2{fill:url(#Gradiente_sem_nome_32-2);}.cls-3,.cls-4{fill:none;}.cls-3{stroke:#211915;}.cls-4{stroke:#fff;stroke-width:0.5px;}.cls-5{fill:#fff;}</style><linearGradient id="Gradiente_sem_nome_32" x1="16.34" y1="9.92" x2="27.63" y2="58.83" gradientUnits="userSpaceOnUse"><stop offset="0" stop-color="#3b007f"/><stop offset="0.28" stop-color="#3b0081" stop-opacity="0.98"/><stop offset="0.45" stop-color="#3a0088" stop-opacity="0.91"/><stop offset="0.59" stop-color="#390094" stop-opacity="0.8"/><stop offset="0.72" stop-color="#3800a5" stop-opacity="0.64"/><stop offset="0.83" stop-color="#3600bb" stop-opacity="0.43"/><stop offset="0.94" stop-color="#3400d5" stop-opacity="0.18"/><stop offset="1" stop-color="#3200e9" stop-opacity="0"/></linearGradient><linearGradient id="Gradiente_sem_nome_32-2" x1="19.96" y1="1.26" x2="26.66" y2="30.29" xlink:href="#Gradiente_sem_nome_32"/></defs><title>Ativo 14</title><g id="Camada_2" data-name="Camada 2"><g id="Camada_3" data-name="Camada 3"><path class="cls-1" d="M.7,47.71,21.62,10.2a4.46,4.46,0,0,1,7.78,0l21,37.51a4.46,4.46,0,0,1-3.89,6.64H4.59A4.46,4.46,0,0,1,.7,47.71Z"/><path class="cls-2" d="M39.19,27.34h0A2,2,0,0,0,41,24.27L27.43,1a2,2,0,0,0-3.52,0L10.08,24.26a2,2,0,0,0,1.75,3.08h.35a2,2,0,0,0,1.76-1l10-16.89a2,2,0,0,1,3.51,0l10,16.89A2,2,0,0,0,39.19,27.34Z"/><path class="cls-3" d="M4.56,41.38"/><path class="cls-3" d="M25.51,51.72"/><path class="cls-4" d="M21.3,46.56s.45.67,1.07,4h10.8a39,39,0,0,1-.56-6.94,38.42,38.42,0,0,1,3.21-7.22.58.58,0,0,0,.05-.12c.31-1.05,3.93-14.51-10.76-13.93,0,0-13.43.11-10.52,11.75l-3.13,3.81s-.3,1.53,2.46,1.6l.11.82a.79.79,0,0,0-.3,1s1,.63,0,.86c0,0-.52.67.82,1.08,0,0,.45.71-.41,1.72s1.64,1.87,1.64,1.87S19.33,47.42,21.3,46.56Z"/><path class="cls-5" d="M27.55,34.6a.81.81,0,1,1-1.62,0Z"/><path class="cls-5" d="M26,34.27,25,33.19a2.1,2.1,0,0,1,0-2.95,2.31,2.31,0,0,1,3.12.13s1,.93,0,2.82l-.6,1.08Z"/><rect class="cls-5" x="21.87" y="28.95" width="0.65" height="2.59" rx="0.32" ry="0.32" transform="translate(59.64 28.03) rotate(122.89)"/><rect class="cls-5" x="23.6" y="26.97" width="0.65" height="2.59" rx="0.32" ry="0.32" transform="translate(57.72 43.36) rotate(154.32)"/><rect class="cls-5" x="26.03" y="26.36" width="0.65" height="2.59" rx="0.32" ry="0.32" transform="translate(54.17 53.83) rotate(176.88)"/><rect class="cls-5" x="28.84" y="27.11" width="0.65" height="2.59" rx="0.32" ry="0.32" transform="translate(40.23 67.58) rotate(-150)"/><rect class="cls-5" x="30.59" y="29.22" width="0.65" height="2.59" rx="0.32" ry="0.32" transform="translate(22.62 73.15) rotate(-123.63)"/></g></g></svg>