<svg xmlns="http://www.w3.org/2000/svg" viewBox="0 0 197.12 76.45"><title>Ativo 2</title><polygon points="0 0 0 76.45 57.15 76.45 57.15 12.55 44.6 0 0 0" style="fill:#f0f1f1"/><polygon points="57.15 12.55 44.6 0 44.6 12.55 57.15 12.55" style="fill:#d0d2d3"/><rect x="9.1" y="21.58" width="39.81" height="3.46" style="fill:#929597"/><rect x="9.1" y="27.97" width="39.81" height="3.47" style="fill:#bbbdbf"/><rect x="9.1" y="34.37" width="39.81" height="3.46" style="fill:#bbbdbf"/><rect x="9.48" y="10.82" width="23.62" height="3.47" style="fill:#929597"/><rect x="9.1" y="40.76" width="39.81" height="3.47" style="fill:#bbbdbf"/><rect x="9.1" y="50.39" width="39.81" height="3.46" style="fill:#929597"/><rect x="9.1" y="56.78" width="39.81" height="3.47" style="fill:#bbbdbf"/><rect x="9.1" y="63.17" width="39.81" height="3.46" style="fill:#bbbdbf"/><path d="M55.25,69.65a1.55,1.55,0,0,1,0-2.19l6.95-6.95a1.55,1.55,0,0,1,2.19,0l5.41,5.41a1.55,1.55,0,0,1,0,2.19l-6.95,6.95a1.55,1.55,0,0,1-2.19,0Z" style="fill:#f45d81"/><polygon points="35.9 32.03 20.14 25.89 26.68 41.25 35.9 32.03" style="fill:#f7cf9c"/><polygon points="25.64 28.03 20.14 25.89 22.42 31.25 25.64 28.03" style="fill:#221f1f"/><rect x="39.08" y="30.72" width="13.04" height="40.47" transform="translate(-22.67 47.15) rotate(-44.99)" style="fill:#ffdc24"/><rect x="54.58" y="64.77" width="13.04" height="3.36" transform="translate(-29.09 62.66) rotate(-45)" style="fill:#f0f1f1"/><rect x="40.03" y="33" width="6.58" height="40.47" transform="translate(-24.96 46.22) rotate(-45)" style="fill:#e8bf15"/><text transform="translate(59.95 53.85)" style="font-size:33px;fill:#00adee;font-family:Archistico-Normal, Archistico">TW Bl<tspan x="99.69" y="0" style="letter-spacing:-0.00341796875em">o</tspan><tspan x="118.14" y="0">g</tspan></text></svg>