<svg xmlns="http://www.w3.org/2000/svg" viewBox="0 0 39.28 43.83"><defs><style>.cls-1{fill:#f2f2f2;}</style></defs><title>Ativo 2</title><g id="Camada_2" data-name="Camada 2"><g id="Layer_1" data-name="Layer 1"><g id="_374" data-name="374"><path class="cls-1" d="M19.64,43.83c-5.52,0-9.85-9.63-9.85-21.92S14.11,0,19.64,0s9.85,9.63,9.85,21.92S25.16,43.83,19.64,43.83ZM19.64,2c-3.79,0-7.85,8-7.85,19.92s4.06,19.92,7.85,19.92,7.85-8,7.85-19.92S23.43,2,19.64,2Z"/><path class="cls-1" d="M31.65,35.88c-4.78,0-10.95-2-16.93-5.44C4.07,24.3-2.1,15.74.66,11c1.14-2,3.55-3,7-3,4.78,0,10.95,2,16.93,5.43,10.64,6.14,16.81,14.71,14.05,19.49C37.48,34.84,35.07,35.88,31.65,35.88ZM7.63,9.95c-2.63,0-4.49.71-5.24,2-1.89,3.28,3,10.8,13.32,16.76,5.6,3.24,11.56,5.17,15.93,5.17,2.63,0,4.49-.71,5.24-2,1.9-3.29-3-10.8-13.32-16.76C18,11.88,12,9.95,7.63,9.95Z"/><path class="cls-1" d="M7.63,35.88c-3.43,0-5.84-1-7-3C-2.1,28.09,4.07,19.53,14.71,13.38c6-3.45,12.15-5.43,16.93-5.43,3.43,0,5.84,1,7,3,2.76,4.79-3.42,13.35-14.06,19.49C18.58,33.9,12.41,35.88,7.63,35.88Zm24-25.93c-4.37,0-10.33,1.93-15.93,5.16C5.4,21.07.49,28.59,2.39,31.88c.75,1.29,2.61,2,5.24,2C12,33.88,18,32,23.56,28.72c10.32-6,15.22-13.47,13.33-16.76C36.14,10.66,34.28,9.95,31.64,9.95Z"/><path class="cls-1" d="M19.64,24.22a2.3,2.3,0,1,1,2.3-2.3A2.3,2.3,0,0,1,19.64,24.22Z"/></g></g></g></svg>