<svg xmlns="http://www.w3.org/2000/svg" viewBox="0 0 140.16 140.16"><title>Ativo 4</title><circle cx="70.08" cy="70.08" r="68.58" style="fill:none;stroke:#000;stroke-miterlimit:10;stroke-width:3px"/><path d="M80,69.81c.17,3.73.75,8.26,2.34,11.41,0,0,30,2.63,30.37,15.78v10.27H27.43V97C27.84,83.85,57.8,81.22,57.8,81.22A25.59,25.59,0,0,0,60,71.5" style="fill:none;stroke:#1a1a1a;stroke-miterlimit:10"/><path d="M54.57,59.61C56.2,69,62.19,76,69.33,76S82.6,68.89,84.15,59.31h0c5.06-5.9-.05-10.3-.05-10.3h0c-1.85-8.94-7.87-16.12-14.77-16.12-7.34,0-13.47,7.39-14.89,17.23h0s-5.12,4.55.13,9.48Z" style="fill:none;stroke:#1a1a1a;stroke-miterlimit:10"/></svg>