<svg xmlns="http://www.w3.org/2000/svg" xmlns:xlink="http://www.w3.org/1999/xlink" viewBox="0 0 92.82 95.21"><defs><linearGradient id="a" x1="5.04" y1="88.52" x2="93.76" y2="-6.96" gradientUnits="userSpaceOnUse"><stop offset="0" stop-color="#b1b7c2"/><stop offset="1" stop-color="#fff"/></linearGradient><linearGradient id="b" x1="-13.91" y1="100.53" x2="70.43" y2="17.08" gradientUnits="userSpaceOnUse"><stop offset="0" stop-color="#124b97"/><stop offset="0.43" stop-color="#7d4196"/><stop offset="0.82" stop-color="#da3894"/><stop offset="1" stop-color="#ff3494"/></linearGradient></defs><title>Ativo 1</title><g style="isolation:isolate"><path d="M25.82,2C35.36-8.48,90.2,25,92.74,47.88s-54.68,59-71.09,43.63C7.41,78.13-.08,30.35,25.82,2Z" style="fill:url(#a)"/><path d="M46.32,92.69C32.58,95.09-5.56,48.45.69,29.27S50.17,2,77.42,18.38C106.67,36,69.61,88.64,46.32,92.69Z" style="fill:url(#b)"/><path d="M68.67,26.94C84.06,33.58,75.27,69,64,77.83,52.22,87.08,13.15,83,11.54,48.44,10.8,32.76,35.27,12.53,68.67,26.94Z" style="fill:#231f20;opacity:0.30000000000000004;mix-blend-mode:overlay"/><path d="M68.67,25.36C84.06,32,75.27,67.46,64,76.25c-11.82,9.25-50.89,5.14-52.5-29.39C10.8,31.18,35.27,10.95,68.67,25.36Z" style="fill:#231f20;opacity:0.6000000000000001;mix-blend-mode:overlay"/><path d="M68.67,23.44c15.4,6.64,6.6,42.1-4.62,50.89-11.82,9.25-50.89,5.14-52.5-29.39C10.8,29.26,35.27,9,68.67,23.44Z" style="fill:#fff"/><path d="M68.67,22.44c15.4,6.64,6.6,42.11-4.62,50.89-11.82,9.25-50.89,5.14-52.5-29.39C10.8,28.26,35.27,8,68.67,22.44Z" style="fill:#fff"/><g style="opacity:0.4;mix-blend-mode:overlay"><path d="M48.34,77.72A40.4,40.4,0,0,1,24.39,70c-8-6-12.46-15-13-26.09-.24-5.09,2.19-10.71,6.68-15.4,6.77-7.09,17.06-11.16,28.24-11.16a56.56,56.56,0,0,1,22.39,4.94c4.43,1.91,7.22,6.39,8.07,12.95,1.67,12.94-4.6,31.84-12.67,38.15C60.64,76.15,54.88,77.72,48.34,77.72Zm-2-60.08c-11.11,0-21.33,4-28.05,11.08-4.43,4.65-6.84,10.19-6.61,15.22,1.08,23.16,19.2,33.53,36.68,33.53,6.49,0,12.19-1.54,15.63-4.24C72,67,78.2,48.18,76.54,35.31,75.7,28.84,73,24.43,68.62,22.55A56.32,56.32,0,0,0,46.32,17.63Z" style="fill:#fff"/></g><text transform="translate(29.79 55.69)" style="font-size:10px;fill:#9e3d95;font-family:OpenSans-ExtraBold, Open Sans;font-weight:700">BLOG</text><text transform="translate(17.95 46.19)" style="font-size:12px;fill:#9e3d95;font-family:OpenSans-Light, Open Sans">TWUISEO</text></g></svg>