<svg xmlns="http://www.w3.org/2000/svg" viewBox="0 0 41.25 23.67"><defs><style>.cls-1{fill:#f7f7f8;}</style></defs><title>Ativo 16</title><g id="Camada_2" data-name="Camada 2"><g id="Layer_1" data-name="Layer 1"><g id="_408" data-name="408"><path class="cls-1" d="M37.21,2.73h-33a1,1,0,0,0,0,2H36.57V19.57a1,1,0,1,0,2,0V4.09A1.36,1.36,0,0,0,37.21,2.73Z"/><path class="cls-1" d="M39.89,0h-33a1,1,0,0,0,0,2H39.25V16.84a1,1,0,1,0,2,0V1.36A1.36,1.36,0,0,0,39.89,0Z"/><path class="cls-1" d="M34.35,5.48h-33A1.36,1.36,0,0,0,0,6.83V22.31a1.36,1.36,0,0,0,1.36,1.36h33a1.36,1.36,0,0,0,1.36-1.36V6.83A1.36,1.36,0,0,0,34.35,5.48Zm-4.24,16H5.46A3.44,3.44,0,0,0,1.8,18V11A3.44,3.44,0,0,0,5.45,7.53H30.1A3.45,3.45,0,0,0,33.76,11v7A3.44,3.44,0,0,0,30.11,21.48Z"/><path class="cls-1" d="M21.12,13.42a.75.75,0,0,0,.73-1.31,8.81,8.81,0,0,0-2.69-.7V9.8A.75.75,0,0,0,18.41,9h0a.75.75,0,0,0-.75.75v1.56c-1,.06-2.73.34-3.06,1.51a1.48,1.48,0,0,0,.17,1.28c.5.77,1.64,1.15,3.5,1.18h.13c2,0,2.27.5,2.27.52a3.83,3.83,0,0,1-2.2.46,10.28,10.28,0,0,1-2.91-.47.75.75,0,1,0-.71,1.32,8.82,8.82,0,0,0,2.71.58l0,1.46a.75.75,0,0,0,.75.73h0a.75.75,0,0,0,.73-.77l0-1.38c1-.06,2.7-.35,3-1.51A1.48,1.48,0,0,0,21.92,15c-.5-.77-1.64-1.15-3.5-1.18h-.12c-1.74,0-2.24-.4-2.27-.52a4.27,4.27,0,0,1,2.2-.46A8.83,8.83,0,0,1,21.12,13.42Z"/></g></g></g></svg>