<svg xmlns="http://www.w3.org/2000/svg" viewBox="0 0 37 39.25"><defs><style>.cls-1{fill:#f7f7f8;}</style></defs><title>Ativo 6</title><g id="Camada_2" data-name="Camada 2"><g id="Layer_1" data-name="Layer 1"><g id="_313" data-name="313"><path class="cls-1" d="M36,2H1A1,1,0,0,1,1,0H36a1,1,0,0,1,0,2Z"/><path class="cls-1" d="M36,3.34a1,1,0,0,0-1,1V6.19H2V4.34a1,1,0,1,0-2,0v8.41a1,1,0,0,0,1,1H36a1,1,0,0,0,1-1V4.34A1,1,0,0,0,36,3.34ZM5.5,10.09a1,1,0,0,1-1,1H4.25a1,1,0,0,1-1-1V9.84a1,1,0,0,1,1-1H4.5a1,1,0,0,1,1,1Zm3.87,0a1,1,0,0,1-1,1H8.12a1,1,0,0,1-1-1V9.84a1,1,0,0,1,1-1h.25a1,1,0,0,1,1,1Zm10,0a1,1,0,0,1-1,1h-.25a1,1,0,0,1-1-1V9.84a1,1,0,0,1,1-1h.25a1,1,0,0,1,1,1Zm4,0a1,1,0,0,1-1,1h-.25a1,1,0,0,1-1-1V9.84a1,1,0,0,1,1-1h.25a1,1,0,0,1,1,1Zm10.12,0a1,1,0,0,1-1,1h-.25a1,1,0,0,1-1-1V9.84a1,1,0,0,1,1-1h.25a1,1,0,0,1,1,1Z"/><path class="cls-1" d="M36,15.25a1,1,0,0,0-1,1V18.1H2V16.25a1,1,0,1,0-2,0v8.41a1,1,0,0,0,1,1H36a1,1,0,0,0,1-1V16.25A1,1,0,0,0,36,15.25ZM5.5,22a1,1,0,0,1-1,1H4.25a1,1,0,0,1-1-1v-.25a1,1,0,0,1,1-1H4.5a1,1,0,0,1,1,1Zm3.87,0a1,1,0,0,1-1,1H8.12a1,1,0,0,1-1-1v-.25a1,1,0,0,1,1-1h.25a1,1,0,0,1,1,1Zm10,0a1,1,0,0,1-1,1h-.25a1,1,0,0,1-1-1v-.25a1,1,0,0,1,1-1h.25a1,1,0,0,1,1,1Zm4,0a1,1,0,0,1-1,1h-.25a1,1,0,0,1-1-1v-.25a1,1,0,0,1,1-1h.25a1,1,0,0,1,1,1ZM33.5,22a1,1,0,0,1-1,1h-.25a1,1,0,0,1-1-1v-.25a1,1,0,0,1,1-1h.25a1,1,0,0,1,1,1Z"/><path class="cls-1" d="M36,27a1,1,0,0,0-1,1v1.85H2V28a1,1,0,1,0-2,0V38.25a1,1,0,1,0,2,0v-.88H35v.88a1,1,0,1,0,2,0V28A1,1,0,0,0,36,27ZM5.5,33.72a1,1,0,0,1-1,1H4.25a1,1,0,0,1-1-1v-.25a1,1,0,0,1,1-1H4.5a1,1,0,0,1,1,1Zm3.87,0a1,1,0,0,1-1,1H8.12a1,1,0,0,1-1-1v-.25a1,1,0,0,1,1-1h.25a1,1,0,0,1,1,1Zm10,0a1,1,0,0,1-1,1h-.25a1,1,0,0,1-1-1v-.25a1,1,0,0,1,1-1h.25a1,1,0,0,1,1,1Zm4,0a1,1,0,0,1-1,1h-.25a1,1,0,0,1-1-1v-.25a1,1,0,0,1,1-1h.25a1,1,0,0,1,1,1Zm10.12,0a1,1,0,0,1-1,1h-.25a1,1,0,0,1-1-1v-.25a1,1,0,0,1,1-1h.25a1,1,0,0,1,1,1Z"/></g></g></g></svg>